<svg width="1200" height="720" viewBox="0 0 1200 720" fill="none" xmlns="http://www.w3.org/2000/svg">
  <rect width="1200" height="720" fill="#F8FAFC"/>
  <rect x="60" y="60" width="1080" height="600" stroke="#CBD5E1" stroke-width="2"/>
  <rect x="110" y="250" width="210" height="220" fill="#FFFFFF" stroke="#CBD5E1" stroke-width="2"/>
  <text x="215" y="310" fill="#0F172A" font-family="Arial, sans-serif" font-size="30" text-anchor="middle">Applications</text>
  <text x="215" y="350" fill="#475569" font-family="Arial, sans-serif" font-size="20" text-anchor="middle">Product UI</text>
  <text x="215" y="385" fill="#475569" font-family="Arial, sans-serif" font-size="20" text-anchor="middle">API services</text>
  <text x="215" y="420" fill="#475569" font-family="Arial, sans-serif" font-size="20" text-anchor="middle">Agent workers</text>
  <rect x="445" y="170" width="310" height="380" fill="#0F172A" stroke="#2563EB" stroke-width="3"/>
  <rect x="445" y="170" width="310" height="42" fill="#111827"/>
  <circle cx="475" cy="191" r="7" fill="#F87171"/>
  <circle cx="498" cy="191" r="7" fill="#FBBF24"/>
  <circle cx="521" cy="191" r="7" fill="#38BDF8"/>
  <text x="600" y="198" fill="#93C5FD" font-family="Arial, sans-serif" font-size="18" text-anchor="middle">odock gateway</text>
  <text x="600" y="270" fill="#F8FAFC" font-family="Arial, sans-serif" font-size="30" text-anchor="middle">One Control Plane</text>
  <text x="600" y="320" fill="#93C5FD" font-family="Arial, sans-serif" font-size="20" text-anchor="middle">Routing</text>
  <text x="600" y="355" fill="#93C5FD" font-family="Arial, sans-serif" font-size="20" text-anchor="middle">Security Guardrails</text>
  <text x="600" y="390" fill="#93C5FD" font-family="Arial, sans-serif" font-size="20" text-anchor="middle">Budgets and Quotas</text>
  <text x="600" y="425" fill="#93C5FD" font-family="Arial, sans-serif" font-size="20" text-anchor="middle">Observability</text>
  <text x="600" y="460" fill="#93C5FD" font-family="Arial, sans-serif" font-size="20" text-anchor="middle">MCP Tool Access</text>
  <rect x="880" y="130" width="210" height="140" fill="#FFFFFF" stroke="#CBD5E1" stroke-width="2"/>
  <text x="985" y="185" fill="#0F172A" font-family="Arial, sans-serif" font-size="28" text-anchor="middle">Providers</text>
  <text x="985" y="225" fill="#475569" font-family="Arial, sans-serif" font-size="20" text-anchor="middle">OpenAI</text>
  <text x="985" y="255" fill="#475569" font-family="Arial, sans-serif" font-size="20" text-anchor="middle">Anthropic</text>
  <rect x="880" y="320" width="210" height="140" fill="#FFFFFF" stroke="#CBD5E1" stroke-width="2"/>
  <text x="985" y="375" fill="#0F172A" font-family="Arial, sans-serif" font-size="28" text-anchor="middle">MCP Tools</text>
  <text x="985" y="415" fill="#475569" font-family="Arial, sans-serif" font-size="20" text-anchor="middle">Knowledge</text>
  <text x="985" y="445" fill="#475569" font-family="Arial, sans-serif" font-size="20" text-anchor="middle">Actions</text>
  <rect x="880" y="510" width="210" height="90" fill="#FFFFFF" stroke="#CBD5E1" stroke-width="2"/>
  <text x="985" y="565" fill="#0F172A" font-family="Arial, sans-serif" font-size="28" text-anchor="middle">Plugins</text>
  <path d="M320 360H425" stroke="#2563EB" stroke-width="4"/>
  <path d="M412 347L425 360L412 373" stroke="#2563EB" stroke-width="4"/>
  <path d="M755 230H865" stroke="#2563EB" stroke-width="4"/>
  <path d="M852 217L865 230L852 243" stroke="#2563EB" stroke-width="4"/>
  <path d="M755 390H865" stroke="#2563EB" stroke-width="4"/>
  <path d="M852 377L865 390L852 403" stroke="#2563EB" stroke-width="4"/>
  <path d="M755 555H865" stroke="#2563EB" stroke-width="4"/>
  <path d="M852 542L865 555L852 568" stroke="#2563EB" stroke-width="4"/>
</svg>
